# xmcd
#
# Track frame offsets: 
#        150
#        12646
#        26022
#        37646
#        48985
#        62727
#        76851
#        90637
#        103859
#        114265
#        125090
#        138530
#        149752
#        160871
#        170925
#        184782
#        196261
#        210968
#        225499
#        238417
#
# Disc length: 3328 seconds
#
# Revision: 0
# Processed by: cddbd v1.5.2PL0 Copyright (c) Steve Scherf et al.
# Submitted via: ExactAudioCopy v0.99pb5
#
DISCID=180cfe14
DTITLE=Lefty Frizzell - Country Music Legends [CD1]
DYEAR=2007
DGENRE=Country
TTITLE0=I Love You A Thousand Ways
TTITLE1=If You've Got The Money, I've Got The Time
TTITLE2=Shine, Shave, Shower (It's Saturday)
TTITLE3=Look What Thoughts Wll Do
TTITLE4=I Want To Be With You Always
TTITLE5=Always Late (With Your Kisses)
TTITLE6=Mom And Dad's Waltz
TTITLE7=Travellin' Blues
TTITLE8=Give Me More, More More (Of Your Kisses)
TTITLE9=How Long Will It Take (To Stop Loving You)
TTITLE10=Don't Stay Away (Till Love Grows Cold)
TTITLE11=Forever (And Always)
TTITLE12=I'm An Old, Old Man (Tryin' To Live While I Can)
TTITLE13=Bring Your Sweet Self Back To Me
TTITLE14=Run 'em Off
TTITLE15=I Love You Mostly
TTITLE16=Treasure Untold
TTITLE17=Blue Yodel No. 6
TTITLE18=My Old Pal
TTITLE19=Blue Yodel No. 2 (My Lovin' Gal Lucille)
EXTD=
EXTT0=
EXTT1=
EXTT2=
EXTT3=
EXTT4=
EXTT5=
EXTT6=
EXTT7=
EXTT8=
EXTT9=
EXTT10=
EXTT11=
EXTT12=
EXTT13=
EXTT14=
EXTT15=
EXTT16=
EXTT17=
EXTT18=
EXTT19=
PLAYORDER=
